<svg xmlns="http://www.w3.org/2000/svg" width="40" height="40" fill="none"><g filter="url(#a)"><rect width="40" height="40" fill="#A9B5B9" fill-opacity=".2" rx="8"/><path fill="#fff" d="M5.554 25V14.818h3.629c.792 0 1.448.144 1.969.433.52.288.91.683 1.168 1.183.259.497.388 1.057.388 1.68 0 .627-.131 1.19-.393 1.69a2.84 2.84 0 0 1-1.173 1.184c-.52.288-1.175.433-1.964.433H6.682v-1.303H9.04c.5 0 .906-.086 1.218-.259.311-.175.54-.414.686-.716.146-.301.219-.644.219-1.029 0-.384-.073-.726-.22-1.024a1.569 1.569 0 0 0-.69-.7c-.312-.17-.723-.254-1.233-.254h-1.93V25H5.555Zm17.972-6.87h-1.552a2.368 2.368 0 0 0-.93-1.517 2.574 2.574 0 0 0-.79-.398 3.086 3.086 0 0 0-.92-.134c-.586 0-1.112.148-1.576.442-.46.295-.825.728-1.093 1.298-.265.57-.398 1.266-.398 2.088 0 .829.133 1.528.398 2.098.268.57.634 1.001 1.098 1.293.464.291.986.437 1.566.437.322 0 .627-.043.915-.129.292-.09.555-.22.79-.393a2.379 2.379 0 0 0 .94-1.496l1.552.005c-.083.5-.244.96-.483 1.382a3.814 3.814 0 0 1-.91 1.084 4.114 4.114 0 0 1-1.262.7 4.67 4.67 0 0 1-1.551.25c-.882 0-1.668-.21-2.357-.627-.69-.421-1.233-1.023-1.63-1.805-.395-.782-.592-1.715-.592-2.799 0-1.087.199-2.02.596-2.799.398-.782.942-1.382 1.631-1.8.69-.42 1.473-.631 2.352-.631.54 0 1.043.078 1.51.234.472.152.894.377 1.269.676.374.295.684.656.93 1.084.245.424.41.91.497 1.456Zm11.242 1.78c0 1.086-.199 2.02-.596 2.803-.398.779-.943 1.379-1.636 1.8-.69.417-1.473.626-2.352.626-.881 0-1.668-.209-2.361-.626-.69-.421-1.233-1.023-1.63-1.805-.399-.782-.597-1.715-.597-2.799 0-1.087.198-2.02.596-2.799.398-.782.942-1.382 1.63-1.8.694-.42 1.48-.631 2.362-.631.879 0 1.662.21 2.352.631.693.418 1.238 1.018 1.636 1.8.397.779.596 1.712.596 2.8Zm-1.521 0c0-.83-.134-1.527-.403-2.094-.265-.57-.63-1-1.094-1.293a2.842 2.842 0 0 0-1.566-.442 2.85 2.85 0 0 0-1.57.442c-.461.292-.826.723-1.094 1.293-.265.567-.398 1.265-.398 2.093 0 .829.133 1.528.398 2.098.268.567.633.998 1.093 1.293.461.291.985.437 1.571.437.584 0 1.106-.146 1.566-.437.464-.295.829-.726 1.094-1.293.269-.57.403-1.27.403-2.098Z"/><path fill="#fff" d="M5.554 25V14.818h3.629c.792 0 1.448.144 1.969.433.52.288.91.683 1.168 1.183.259.497.388 1.057.388 1.68 0 .627-.131 1.19-.393 1.69a2.84 2.84 0 0 1-1.173 1.184c-.52.288-1.175.433-1.964.433H6.682v-1.303H9.04c.5 0 .906-.086 1.218-.259.311-.175.54-.414.686-.716.146-.301.219-.644.219-1.029 0-.384-.073-.726-.22-1.024a1.569 1.569 0 0 0-.69-.7c-.312-.17-.723-.254-1.233-.254h-1.93V25H5.555Zm17.972-6.87h-1.552a2.368 2.368 0 0 0-.93-1.517 2.574 2.574 0 0 0-.79-.398 3.086 3.086 0 0 0-.92-.134c-.586 0-1.112.148-1.576.442-.46.295-.825.728-1.093 1.298-.265.57-.398 1.266-.398 2.088 0 .829.133 1.528.398 2.098.268.57.634 1.001 1.098 1.293.464.291.986.437 1.566.437.322 0 .627-.043.915-.129.292-.09.555-.22.79-.393a2.379 2.379 0 0 0 .94-1.496l1.552.005c-.083.5-.244.96-.483 1.382a3.814 3.814 0 0 1-.91 1.084 4.114 4.114 0 0 1-1.262.7 4.67 4.67 0 0 1-1.551.25c-.882 0-1.668-.21-2.357-.627-.69-.421-1.233-1.023-1.63-1.805-.395-.782-.592-1.715-.592-2.799 0-1.087.199-2.02.596-2.799.398-.782.942-1.382 1.631-1.8.69-.42 1.473-.631 2.352-.631.54 0 1.043.078 1.51.234.472.152.894.377 1.269.676.374.295.684.656.93 1.084.245.424.41.91.497 1.456Zm11.242 1.78c0 1.086-.199 2.02-.596 2.803-.398.779-.943 1.379-1.636 1.8-.69.417-1.473.626-2.352.626-.881 0-1.668-.209-2.361-.626-.69-.421-1.233-1.023-1.63-1.805-.399-.782-.597-1.715-.597-2.799 0-1.087.198-2.02.596-2.799.398-.782.942-1.382 1.63-1.8.694-.42 1.48-.631 2.362-.631.879 0 1.662.21 2.352.631.693.418 1.238 1.018 1.636 1.8.397.779.596 1.712.596 2.8Zm-1.521 0c0-.83-.134-1.527-.403-2.094-.265-.57-.63-1-1.094-1.293a2.842 2.842 0 0 0-1.566-.442 2.85 2.85 0 0 0-1.57.442c-.461.292-.826.723-1.094 1.293-.265.567-.398 1.265-.398 2.093 0 .829.133 1.528.398 2.098.268.567.633.998 1.093 1.293.461.291.985.437 1.571.437.584 0 1.106-.146 1.566-.437.464-.295.829-.726 1.094-1.293.269-.57.403-1.27.403-2.098Z"/></g><defs><filter id="a" width="48" height="48" x="-4" y="-4" color-interpolation-filters="sRGB" filterUnits="userSpaceOnUse"><feFlood flood-opacity="0" result="BackgroundImageFix"/><feGaussianBlur in="BackgroundImageFix" stdDeviation="2"/><feComposite in2="SourceAlpha" operator="in" result="effect1_backgroundBlur_2088_931"/><feBlend in="SourceGraphic" in2="effect1_backgroundBlur_2088_931" result="shape"/></filter></defs></svg>