<svg xmlns="http://www.w3.org/2000/svg" width="40" height="40" fill="none"><g filter="url(#a)"><rect width="40" height="40" fill="#A9B5B9" fill-opacity=".2" rx="8"/><path fill="#fff" d="M6.716 25V14.818h3.63c.791 0 1.447.144 1.968.433.52.288.91.683 1.168 1.183.259.497.388 1.057.388 1.68 0 .627-.131 1.19-.393 1.69a2.84 2.84 0 0 1-1.173 1.184c-.52.288-1.175.433-1.964.433H7.844v-1.303h2.357c.5 0 .906-.086 1.218-.259.311-.175.54-.414.686-.716.146-.301.219-.644.219-1.029 0-.384-.073-.726-.219-1.024a1.568 1.568 0 0 0-.691-.7c-.312-.17-.723-.254-1.233-.254H8.252V25H6.716Zm15.068-7.507a1.453 1.453 0 0 0-.656-1.094c-.384-.262-.868-.393-1.452-.393-.417 0-.779.067-1.084.2-.304.128-.541.308-.71.536a1.268 1.268 0 0 0-.25.77c0 .243.057.451.17.627.116.176.267.323.452.443.19.116.391.213.607.293.215.076.422.14.621.189l.995.258c.325.08.658.188.999.324.341.136.658.314.95.537.291.222.527.497.706.825.182.328.273.72.273 1.178 0 .577-.15 1.089-.448 1.536-.294.448-.724.8-1.287 1.06-.56.258-1.238.387-2.034.387-.762 0-1.421-.12-1.978-.363-.557-.242-.993-.585-1.308-1.029-.315-.448-.489-.978-.522-1.59h1.541c.03.367.15.674.358.919.212.242.483.422.81.542.332.116.695.174 1.09.174.434 0 .82-.068 1.158-.204.341-.14.61-.331.805-.577.196-.248.294-.538.294-.87 0-.301-.087-.548-.259-.74a1.91 1.91 0 0 0-.691-.478 6.755 6.755 0 0 0-.98-.333l-1.203-.328c-.815-.222-1.461-.549-1.938-.98-.474-.43-.711-1-.711-1.71 0-.586.159-1.098.477-1.536.318-.437.749-.777 1.293-1.02.543-.244 1.156-.367 1.839-.367.69 0 1.298.121 1.825.363.53.242.947.575 1.252 1 .305.42.465.904.478 1.45h-1.482ZM26.58 25h-1.63l3.663-10.182h1.775L34.051 25h-1.63l-2.88-8.332h-.079L26.58 25Zm.273-3.987h5.29v1.292h-5.29v-1.292Z"/><path fill="#fff" d="M6.716 25V14.818h3.63c.791 0 1.447.144 1.968.433.52.288.91.683 1.168 1.183.259.497.388 1.057.388 1.68 0 .627-.131 1.19-.393 1.69a2.84 2.84 0 0 1-1.173 1.184c-.52.288-1.175.433-1.964.433H7.844v-1.303h2.357c.5 0 .906-.086 1.218-.259.311-.175.54-.414.686-.716.146-.301.219-.644.219-1.029 0-.384-.073-.726-.219-1.024a1.568 1.568 0 0 0-.691-.7c-.312-.17-.723-.254-1.233-.254H8.252V25H6.716Zm15.068-7.507a1.453 1.453 0 0 0-.656-1.094c-.384-.262-.868-.393-1.452-.393-.417 0-.779.067-1.084.2-.304.128-.541.308-.71.536a1.268 1.268 0 0 0-.25.77c0 .243.057.451.17.627.116.176.267.323.452.443.19.116.391.213.607.293.215.076.422.14.621.189l.995.258c.325.08.658.188.999.324.341.136.658.314.95.537.291.222.527.497.706.825.182.328.273.72.273 1.178 0 .577-.15 1.089-.448 1.536-.294.448-.724.8-1.287 1.06-.56.258-1.238.387-2.034.387-.762 0-1.421-.12-1.978-.363-.557-.242-.993-.585-1.308-1.029-.315-.448-.489-.978-.522-1.59h1.541c.03.367.15.674.358.919.212.242.483.422.81.542.332.116.695.174 1.09.174.434 0 .82-.068 1.158-.204.341-.14.61-.331.805-.577.196-.248.294-.538.294-.87 0-.301-.087-.548-.259-.74a1.91 1.91 0 0 0-.691-.478 6.755 6.755 0 0 0-.98-.333l-1.203-.328c-.815-.222-1.461-.549-1.938-.98-.474-.43-.711-1-.711-1.71 0-.586.159-1.098.477-1.536.318-.437.749-.777 1.293-1.02.543-.244 1.156-.367 1.839-.367.69 0 1.298.121 1.825.363.53.242.947.575 1.252 1 .305.42.465.904.478 1.45h-1.482ZM26.58 25h-1.63l3.663-10.182h1.775L34.051 25h-1.63l-2.88-8.332h-.079L26.58 25Zm.273-3.987h5.29v1.292h-5.29v-1.292Z"/></g><defs><filter id="a" width="48" height="48" x="-4" y="-4" color-interpolation-filters="sRGB" filterUnits="userSpaceOnUse"><feFlood flood-opacity="0" result="BackgroundImageFix"/><feGaussianBlur in="BackgroundImageFix" stdDeviation="2"/><feComposite in2="SourceAlpha" operator="in" result="effect1_backgroundBlur_2088_941"/><feBlend in="SourceGraphic" in2="effect1_backgroundBlur_2088_941" result="shape"/></filter></defs></svg>