<svg xmlns="http://www.w3.org/2000/svg" width="40" height="40" fill="none"><g filter="url(#a)"><rect width="40" height="40" fill="#A9B5B9" fill-opacity=".2" rx="8"/><path fill="#A9B5B9" fill-opacity=".2" d="M3.92 25V14.818h3.63c.791 0 1.448.144 1.968.433.52.288.91.683 1.168 1.183.259.497.388 1.057.388 1.68 0 .627-.13 1.19-.393 1.69a2.84 2.84 0 0 1-1.173 1.184c-.52.288-1.175.433-1.964.433H5.048v-1.303h2.357c.5 0 .907-.086 1.218-.259.312-.175.54-.414.686-.716.146-.301.219-.644.219-1.029 0-.384-.073-.726-.219-1.024a1.569 1.569 0 0 0-.69-.7c-.312-.17-.723-.254-1.234-.254H5.456V25H3.92Zm18.36-5.09c0 1.086-.2 2.02-.597 2.803-.398.779-.943 1.379-1.636 1.8-.69.417-1.473.626-2.351.626-.882 0-1.67-.209-2.362-.626-.69-.421-1.233-1.023-1.63-1.805-.398-.782-.597-1.715-.597-2.799 0-1.087.199-2.02.597-2.799.397-.782.94-1.382 1.63-1.8.693-.42 1.48-.631 2.362-.631.878 0 1.662.21 2.351.631.693.418 1.238 1.018 1.636 1.8.398.779.596 1.712.596 2.8Zm-1.522 0c0-.83-.134-1.527-.402-2.094-.266-.57-.63-1-1.094-1.293a2.842 2.842 0 0 0-1.566-.442c-.587 0-1.11.148-1.571.442-.461.292-.826.723-1.094 1.293-.265.567-.398 1.265-.398 2.093 0 .829.133 1.528.398 2.098.268.567.633.998 1.094 1.293.46.291.984.437 1.57.437.584 0 1.106-.146 1.567-.437.464-.295.828-.726 1.093-1.293.269-.57.403-1.27.403-2.098ZM26.625 25l-2.823-10.182h1.615l1.984 7.885h.094l2.064-7.885h1.6l2.064 7.89h.094l1.979-7.89h1.62L34.088 25H32.54L30.4 17.374h-.08L28.177 25h-1.552Z"/><path fill="#fff" d="M3.92 25V14.818h3.63c.791 0 1.448.144 1.968.433.52.288.91.683 1.168 1.183.259.497.388 1.057.388 1.68 0 .627-.13 1.19-.393 1.69a2.84 2.84 0 0 1-1.173 1.184c-.52.288-1.175.433-1.964.433H5.048v-1.303h2.357c.5 0 .907-.086 1.218-.259.312-.175.54-.414.686-.716.146-.301.219-.644.219-1.029 0-.384-.073-.726-.219-1.024a1.569 1.569 0 0 0-.69-.7c-.312-.17-.723-.254-1.234-.254H5.456V25H3.92Zm18.36-5.09c0 1.086-.2 2.02-.597 2.803-.398.779-.943 1.379-1.636 1.8-.69.417-1.473.626-2.351.626-.882 0-1.67-.209-2.362-.626-.69-.421-1.233-1.023-1.63-1.805-.398-.782-.597-1.715-.597-2.799 0-1.087.199-2.02.597-2.799.397-.782.94-1.382 1.63-1.8.693-.42 1.48-.631 2.362-.631.878 0 1.662.21 2.351.631.693.418 1.238 1.018 1.636 1.8.398.779.596 1.712.596 2.8Zm-1.522 0c0-.83-.134-1.527-.402-2.094-.266-.57-.63-1-1.094-1.293a2.842 2.842 0 0 0-1.566-.442c-.587 0-1.11.148-1.571.442-.461.292-.826.723-1.094 1.293-.265.567-.398 1.265-.398 2.093 0 .829.133 1.528.398 2.098.268.567.633.998 1.094 1.293.46.291.984.437 1.57.437.584 0 1.106-.146 1.567-.437.464-.295.828-.726 1.093-1.293.269-.57.403-1.27.403-2.098ZM26.625 25l-2.823-10.182h1.615l1.984 7.885h.094l2.064-7.885h1.6l2.064 7.89h.094l1.979-7.89h1.62L34.088 25H32.54L30.4 17.374h-.08L28.177 25h-1.552Z"/></g><defs><filter id="a" width="48" height="48" x="-4" y="-4" color-interpolation-filters="sRGB" filterUnits="userSpaceOnUse"><feFlood flood-opacity="0" result="BackgroundImageFix"/><feGaussianBlur in="BackgroundImageFix" stdDeviation="2"/><feComposite in2="SourceAlpha" operator="in" result="effect1_backgroundBlur_2088_936"/><feBlend in="SourceGraphic" in2="effect1_backgroundBlur_2088_936" result="shape"/></filter></defs></svg>